<svg width="24" height="24" viewBox="0 0 24 24" fill="none" xmlns="http://www.w3.org/2000/svg">
<path d="M6.94421 5.0297C7.56468 4.94529 8.14518 5.04229 8.67088 5.38066L12.4789 9.11311L16.3602 5.35845C18.7525 3.99385 21.1781 6.81337 19.3715 8.97983L15.8833 12.4776L19.6373 16.3596C21.0019 18.7519 18.1824 21.1782 16.0166 19.3716L12.5196 15.8828L8.6383 19.6374C6.47626 20.9124 4.1032 18.5742 5.34045 16.3944C6.5044 15.0216 7.88159 13.8325 9.11513 12.5176C7.93267 11.1604 6.49551 9.99124 5.34045 8.60074C4.4823 7.25392 5.34711 5.2459 6.94495 5.0297H6.94421Z" fill="white"/>
<path d="M12.4162 0L13.5118 0.099492C18.8696 0.757141 23.2364 5.1229 23.896 10.4742L23.9956 11.5686C23.9856 11.8483 24.0094 12.1324 23.9956 12.4115C23.5295 21.8407 12.9907 27.2927 5.13474 21.8175C-4.2841 15.2536 0.0713926 0.555028 11.5724 0H12.4162ZM7.29463 5.67981C5.94282 5.86252 5.21116 7.55952 5.93718 8.69773C6.91439 9.87286 8.13027 10.8609 9.13066 12.0079C8.08705 13.1186 6.92191 14.1235 5.93718 15.2842C4.89106 17.127 6.89811 19.1025 8.72725 18.025L12.0109 14.8518L14.9695 17.8003C16.8024 19.3271 19.1872 17.2766 18.0327 15.2548L14.8568 11.9741L17.8078 9.01811C19.3357 7.1872 17.2835 4.8044 15.2602 5.95763L11.9765 9.13074L8.75481 5.9764C8.31068 5.69044 7.81894 5.6091 7.294 5.67981H7.29463Z" fill="url(#paint0_radial_7_957)"/>
<defs>
<radialGradient id="paint0_radial_7_957" cx="0" cy="0" r="1" gradientUnits="userSpaceOnUse" gradientTransform="translate(12 12) rotate(90) scale(12 24.1851)">
<stop stop-color="#BE0000"/>
<stop offset="1" stop-color="#FF0000"/>
</radialGradient>
</defs>
</svg>
