<svg width="669" height="504" viewBox="0 0 669 504" fill="none" xmlns="http://www.w3.org/2000/svg">
<g clip-path="url(#clip0_455_45444)">
<path d="M601.966 461.014H557.651V461.35H601.966V461.014Z" fill="#EBEBEB"/>
<path d="M443.172 464.665H431.545V465H443.172V464.665Z" fill="#EBEBEB"/>
<path d="M556.313 448.561H530.637V448.897H556.313V448.561Z" fill="#EBEBEB"/>
<path d="M127.98 450.816H70.1914V451.151H127.98V450.816Z" fill="#EBEBEB"/>
<path d="M148.371 450.816H139.901V451.151H148.371V450.816Z" fill="#EBEBEB"/>
<path d="M301.251 456.479H175.907V456.814H301.251V456.479Z" fill="#EBEBEB"/>
<path d="M317.119 379.571H58.765C54.5503 379.571 51.125 376.136 51.125 371.909V7.66255C51.125 3.4354 54.5503 0 58.765 0H317.133C321.347 0 324.773 3.4354 324.773 7.66255V371.909C324.773 376.136 321.347 379.571 317.133 379.571H317.119ZM58.765 0.335488C54.7376 0.335488 51.4595 3.62327 51.4595 7.66255V371.909C51.4595 375.948 54.7376 379.236 58.765 379.236H317.133C321.16 379.236 324.438 375.948 324.438 371.909V7.66255C324.438 3.62327 321.16 0.335488 317.133 0.335488H58.765Z" fill="#EBEBEB"/>
<path d="M606.529 379.571H348.161C343.946 379.571 340.521 376.136 340.521 371.909V7.66255C340.521 3.4354 343.946 0 348.161 0H606.529C610.743 0 614.169 3.4354 614.169 7.66255V371.909C614.169 376.136 610.743 379.571 606.529 379.571ZM348.161 0.335488C344.134 0.335488 340.855 3.62327 340.855 7.66255V371.909C340.855 375.948 344.134 379.236 348.161 379.236H606.529C610.556 379.236 613.834 375.948 613.834 371.909V7.66255C613.834 3.62327 610.556 0.335488 606.529 0.335488H348.161Z" fill="#EBEBEB"/>
<path d="M669 439.422H0V439.758H669V439.422Z" fill="#EBEBEB"/>
<path d="M159.006 145.741L79.6627 164.635C78.298 164.958 76.9198 164.112 76.5987 162.743L51.4042 56.3264C51.083 54.9576 51.926 53.5754 53.2908 53.2534L102.168 41.6052L143.004 67.0755L160.906 142.654C161.227 144.023 160.384 145.405 159.02 145.727L159.006 145.741Z" fill="#F0F0F0"/>
<path d="M143.004 67.0889L102.168 41.6187L99.5723 42.2359L109.192 82.8569L144.73 74.3891L143.004 67.0889Z" fill="#E6E6E6"/>
<path d="M142.937 66.8071L109.995 74.6575L102.168 41.6187L142.937 66.8071Z" fill="#FAFAFA"/>
<path d="M132.265 79.4946L73.5801 93.4731L82.4131 130.775L141.098 116.797L132.265 79.4946Z" fill="#E6E6E6"/>
<path d="M95.8393 114.03L86.0986 129.879L111.654 123.8L95.8393 114.03Z" fill="#FAFAFA"/>
<path d="M105.901 125.169L141.104 116.781L140.301 113.386L120.619 101.215L105.901 125.169Z" fill="#FAFAFA"/>
<path d="M106.476 99.6313C107.292 103.107 105.165 106.583 101.7 107.415C98.2342 108.233 94.7687 106.086 93.9392 102.624C93.123 99.1482 95.2638 95.6726 98.7158 94.8406C102.181 94.022 105.647 96.1557 106.476 99.6313Z" fill="#FAFAFA"/>
<path d="M543.375 125.754L485.493 98.7133C484.49 98.2436 484.062 97.0492 484.53 96.0562L520.589 18.4377C521.057 17.4312 522.248 17.0018 523.238 17.4715L558.896 34.1251L571.647 69.66L546.038 124.801C545.57 125.807 544.379 126.237 543.389 125.767L543.375 125.754Z" fill="#EBEBEB"/>
<path d="M571.634 69.6467L558.883 34.1118L556.996 33.2261L543.228 62.8564L569.158 74.9742L571.634 69.6467Z" fill="#E0E0E0"/>
<path d="M571.727 69.4452L547.684 58.213L558.883 34.1116L571.727 69.4452Z" fill="#F5F5F5"/>
<path d="M545.998 103.732C531.735 97.0626 517.458 90.3931 503.195 83.737C500.318 82.395 497.789 86.6893 500.693 88.0447C514.956 94.7142 529.232 101.384 543.496 108.04C546.372 109.382 548.901 105.087 545.998 103.732Z" fill="#FAFAFA"/>
<path d="M513.324 60.8298C527.587 67.4993 541.863 74.1688 556.126 80.8249C559.003 82.1669 561.532 77.8726 558.628 76.5172C544.365 69.8477 530.089 63.1782 515.826 56.5221C512.949 55.1802 510.42 59.4744 513.324 60.8298Z" fill="#FAFAFA"/>
<path d="M506.701 74.7995C520.964 81.469 535.24 88.1385 549.503 94.7946C552.38 96.1366 554.909 91.8423 552.005 90.487C537.742 83.8175 523.466 77.148 509.203 70.4919C506.326 69.1499 503.797 73.4442 506.701 74.7995Z" fill="#FAFAFA"/>
<path d="M138.416 376.89L186.35 334.596C187.181 333.861 187.256 332.595 186.527 331.775L130.072 267.51C129.339 266.677 128.075 266.602 127.257 267.332L97.7268 293.383L95.4939 331.072L135.593 376.728C136.326 377.561 137.589 377.637 138.407 376.906L138.416 376.89Z" fill="#EBEBEB"/>
<path d="M95.5066 331.046L97.7396 293.356L99.3008 291.974L120.855 316.506L99.382 335.457L95.5066 331.046Z" fill="#E0E0E0"/>
<path d="M95.3603 330.879L115.273 313.31L97.7398 293.355L95.3603 330.879Z" fill="#F5F5F5"/>
<path d="M129.704 356.511C141.514 346.084 153.337 335.654 165.151 325.241C167.534 323.141 171.169 326.544 168.764 328.664C156.954 339.091 145.131 349.521 133.317 359.934C130.935 362.034 127.3 358.631 129.704 356.511Z" fill="#FAFAFA"/>
<path d="M148.979 306.121C137.169 316.547 125.347 326.977 113.533 337.391C111.15 339.49 107.515 336.087 109.92 333.967C121.73 323.541 133.553 313.11 145.366 302.697C147.749 300.597 151.384 304 148.979 306.121Z" fill="#FAFAFA"/>
<path d="M159.269 317.653C147.459 328.079 135.636 338.51 123.822 348.923C121.44 351.023 117.805 347.62 120.209 345.5C132.019 335.073 143.842 324.643 155.656 314.229C158.039 312.13 161.674 315.533 159.269 317.653Z" fill="#FAFAFA"/>
<path d="M405.401 368.245L404.076 363.857C403.635 362.394 402.444 361.294 400.959 360.972L368.686 354.074C366.438 353.591 364.217 355.027 363.736 357.295L350.583 419.172C350.088 421.521 351.573 423.829 353.915 424.325L427.25 440.013C429.592 440.509 431.893 439.02 432.388 436.671L443.868 382.671C444.35 380.417 442.918 378.189 440.657 377.706L408.09 370.741C406.806 370.473 405.775 369.507 405.387 368.245H405.401Z" fill="#E0E0E0"/>
<path d="M440.671 377.706L408.398 370.808C406.913 370.486 405.374 371.01 404.371 372.164L401.387 375.626C400.53 376.619 399.193 377.075 397.908 376.793L365.341 369.829C363.093 369.346 360.872 370.782 360.391 373.049L350.583 419.172C350.088 421.521 351.573 423.829 353.915 424.325L427.25 440.013C429.592 440.509 431.893 439.02 432.388 436.671L443.868 382.671C444.35 380.417 442.918 378.189 440.657 377.706H440.671Z" fill="#F0F0F0"/>
<path d="M337.815 123.158L331.585 111.84C329.537 108.082 325.573 105.722 321.303 105.722H228.197C221.705 105.722 216.433 111.01 216.433 117.521V295.981C216.433 302.754 221.923 308.216 228.632 308.216L439.968 307.759C446.824 304.571 448.26 301.517 451.967 295.746L452.401 140.2C452.401 133.689 447.129 128.401 440.638 128.401H346.66C342.957 128.401 339.515 126.391 337.728 123.114L337.815 123.158Z" fill="#407BFF"/>
<path d="M337.815 123.158L331.585 111.84C329.537 108.082 325.573 105.722 321.303 105.722H228.197C221.705 105.722 216.433 111.01 216.433 117.521V295.981C216.433 302.754 221.923 308.216 228.632 308.216L439.968 307.759C446.824 304.025 449.351 301.517 451.967 295.746L452.401 140.2C452.401 133.689 447.129 128.401 440.638 128.401H346.66C342.957 128.401 339.515 126.391 337.728 123.114L337.815 123.158Z" fill="#B5B5B5"/>
<path d="M423.036 135.564H242.574V270.895H423.036V135.564Z" fill="#263238"/>
<path opacity="0.8" d="M423.036 135.564H242.574V270.895H423.036V135.564Z" fill="white"/>
<path d="M436.019 149.156H229.504V304.063H436.019V149.156Z" fill="#263238"/>
<path opacity="0.9" d="M436.019 149.156H229.504V304.063H436.019V149.156Z" fill="white"/>
<path d="M473.183 153.04C423.689 153.04 398.899 153.04 349.405 153.04C343.697 153.04 338.426 155.05 335.681 158.327C332.369 162.216 330.757 164.182 327.577 168.115C325.268 170.912 320.911 172.66 316.162 172.66C267.801 172.66 243.62 172.66 195.259 172.66C186.894 172.66 181.317 177.204 182.755 182.841C194.562 228.767 200.487 251.752 212.294 297.678C213.775 303.533 220.442 308.253 227.108 308.253H436.847C443.557 308.253 450.179 303.533 451.66 297.678C463.206 252.844 474.708 208.055 486.254 163.221C487.692 157.584 481.854 153.04 473.227 153.04H473.183Z" fill="#EBEBEB"/>
</g>
<path d="M432.742 490.632L432.998 488.232H435.878C437.99 488.232 439.484 488.051 440.358 487.688C441.233 487.325 441.67 486.771 441.67 486.024C441.67 485.555 441.446 484.691 440.998 483.432C440.55 482.152 440.198 481.224 439.942 480.648L443.302 478.792C443.729 479.709 444.156 480.893 444.582 482.344C445.009 483.773 445.222 485.043 445.222 486.152C445.222 488.371 444.497 490.067 443.046 491.24C441.617 492.413 439.473 493 436.614 493H432.998L432.742 490.632ZM441.894 500.328L439.334 497.8L441.894 495.208C442.108 495.443 442.748 496.093 443.814 497.16C443.814 497.16 444.028 497.373 444.454 497.8L441.894 500.328ZM435.846 500.328L433.318 497.8C433.318 497.8 433.66 497.459 434.342 496.776L435.846 495.208C435.846 495.208 436.422 495.784 437.574 496.936L438.438 497.8L435.846 500.328ZM438.886 503.816L436.646 501.576L438.886 499.304C438.886 499.304 439.388 499.805 440.39 500.808L441.158 501.576L438.886 503.816Z" fill="#878787"/>
<path d="M432.96 493C432.277 493 431.648 492.872 431.072 492.616C430.944 494.621 430.069 496.467 428.448 498.152C426.827 499.859 424.683 501.256 422.016 502.344L420.064 498.312C421.472 497.736 422.763 497.064 423.936 496.296C425.109 495.549 426.027 494.803 426.688 494.056C427.371 493.309 427.712 492.669 427.712 492.136C427.712 491.261 427.147 488.883 426.016 485L425.856 484.36L429.44 482.952C429.675 483.613 429.952 484.563 430.272 485.8C430.549 486.675 430.891 487.304 431.296 487.688C431.723 488.051 432.277 488.232 432.96 488.232H433.28L433.536 490.632L433.28 493H432.96Z" fill="#878787"/>
<path d="M406.088 498.216C409.075 497.576 411.368 496.829 412.968 495.976C414.59 495.144 415.646 494.131 416.136 492.936C415.56 493.021 414.92 493.064 414.216 493.064C412.659 493.064 411.251 492.797 409.992 492.264C408.755 491.709 407.88 490.888 407.368 489.8C406.984 488.968 406.792 488.051 406.792 487.048C406.792 485.789 407.059 484.541 407.592 483.304C408.126 482.045 408.862 481.021 409.8 480.232C410.739 479.421 411.763 479.016 412.872 479.016C414.152 479.016 415.315 479.571 416.36 480.68C417.406 481.789 418.227 483.24 418.824 485.032C419.422 486.824 419.72 488.691 419.72 490.632C419.72 493.619 418.643 496.136 416.488 498.184C414.334 500.232 411.358 501.619 407.56 502.344L406.088 498.216ZM410.312 487.112C410.632 487.539 411.23 487.869 412.104 488.104C412.979 488.317 413.96 488.424 415.048 488.424C415.56 488.424 415.944 488.413 416.2 488.392C415.902 486.941 415.411 485.725 414.728 484.744C414.067 483.763 413.32 483.272 412.488 483.272C412.062 483.272 411.656 483.432 411.272 483.752C410.91 484.072 410.611 484.467 410.376 484.936C410.163 485.405 410.056 485.843 410.056 486.248C410.056 486.589 410.142 486.877 410.312 487.112Z" fill="#878787"/>
<path d="M394.123 488.232H395.819C397.333 488.232 398.432 488.061 399.115 487.72C399.797 487.379 400.139 486.867 400.139 486.184C400.139 485.736 399.915 484.861 399.467 483.56C399.019 482.237 398.667 481.267 398.411 480.648L401.771 478.792C402.176 479.688 402.592 480.893 403.019 482.408C403.467 483.901 403.691 485.213 403.691 486.344C403.691 488.52 403.008 490.173 401.643 491.304C400.299 492.435 398.357 493 395.819 493H394.123V488.232ZM396.075 474.568C396.736 473.928 397.387 473.277 398.027 472.616L399.019 471.624L401.963 474.568L399.019 477.544L396.075 474.568Z" fill="#878787"/>
<path d="M394.057 493C393.119 493 392.276 492.829 391.529 492.488C390.804 492.125 390.143 491.592 389.545 490.888C387.988 492.403 386.057 493.16 383.753 493.16C381.151 493.16 378.708 492.307 376.425 490.6L378.153 487.24C378.836 487.603 379.583 487.933 380.393 488.232C381.204 488.509 382.164 488.648 383.273 488.648C384.959 488.648 386.42 488.253 387.657 487.464L383.273 477.448L386.569 475.656L390.953 486.024C391.295 486.877 391.689 487.464 392.137 487.784C392.585 488.083 393.225 488.232 394.057 488.232H394.473L394.729 490.632L394.473 493H394.057Z" fill="#878787"/>
<path d="M368.055 493.128C366.071 493.128 364.524 492.595 363.415 491.528C362.327 490.461 361.783 489.085 361.783 487.4C361.783 486.739 361.879 486.045 362.071 485.32C362.497 483.571 363.436 481.843 364.887 480.136L363.799 479.464L366.231 475.848C369.047 477.555 371.169 479.283 372.599 481.032C374.028 482.76 374.743 484.595 374.743 486.536C374.743 487.837 374.444 488.989 373.847 489.992C373.271 490.973 372.471 491.741 371.447 492.296C370.444 492.851 369.313 493.128 368.055 493.128ZM365.143 486.184C365.1 486.909 365.345 487.475 365.879 487.88C366.412 488.285 367.212 488.488 368.279 488.488C369.132 488.488 369.836 488.328 370.391 488.008C370.967 487.688 371.308 487.272 371.415 486.76C371.265 486.056 370.881 485.331 370.263 484.584C369.665 483.816 368.812 482.995 367.703 482.12C366.017 483.699 365.164 485.053 365.143 486.184Z" fill="#878787"/>
<path d="M331.684 488.232H334.084C336.495 488.232 338.756 487.987 340.868 487.496C342.98 486.984 345.209 486.131 347.556 484.936C346.98 484.701 346.223 484.349 345.284 483.88C343.407 482.92 341.775 482.44 340.388 482.44C339.577 482.44 338.852 482.664 338.212 483.112C337.593 483.539 337.113 484.029 336.772 484.584L334.084 482.632C335.705 479.453 337.849 477.864 340.516 477.864C341.412 477.864 342.276 478.013 343.108 478.312C343.94 478.611 345.156 479.165 346.756 479.976C347.993 480.616 349.039 481.107 349.892 481.448C350.767 481.789 351.727 482.067 352.772 482.28L352.932 486.568C352.356 486.739 351.225 487.283 349.54 488.2C349.412 488.285 349.295 488.36 349.188 488.424C349.081 488.467 348.985 488.509 348.9 488.552C346.788 489.661 344.953 490.525 343.396 491.144C341.839 491.763 340.249 492.232 338.628 492.552C337.007 492.851 335.172 493 333.124 493H331.684V488.232ZM337.988 472.68C338.649 472.04 339.3 471.389 339.94 470.728L340.932 469.736L343.876 472.68C343.641 472.936 342.905 473.683 341.668 474.92C341.668 474.92 341.423 475.165 340.932 475.656L337.988 472.68Z" fill="#878787"/>
<path d="M331.867 493C329.52 493 327.824 492.328 326.779 490.984C325.755 489.64 325.243 487.592 325.243 484.84C325.221 482.216 325.136 479.56 324.987 476.872C324.859 474.163 324.667 471.933 324.411 470.184L328.379 469.32C328.592 470.877 328.763 472.989 328.891 475.656C329.019 478.301 329.083 480.755 329.083 483.016V484.232C329.061 485.32 329.115 486.141 329.243 486.696C329.371 487.251 329.627 487.645 330.011 487.88C330.416 488.115 331.035 488.232 331.867 488.232H332.027L332.283 490.632L332.027 493H331.867Z" fill="#878787"/>
<path d="M313.435 488.232H314.427C315.536 488.232 316.336 488.008 316.827 487.56C317.339 487.112 317.595 486.419 317.595 485.48C317.574 484.008 317.446 481.416 317.211 477.704C316.998 473.971 316.806 471.464 316.635 470.184L320.635 469.32C320.784 470.579 320.944 473.171 321.115 477.096C321.307 481 321.403 483.709 321.403 485.224C321.403 486.675 321.104 487.997 320.507 489.192C319.931 490.365 319.12 491.293 318.075 491.976C317.03 492.659 315.846 493 314.523 493H313.435V488.232Z" fill="#878787"/>
<path d="M302.33 502.248C300.41 502.248 298.693 501.885 297.178 501.16C295.664 500.435 294.469 499.368 293.594 497.96C292.72 496.552 292.282 494.856 292.282 492.872C292.282 491.571 292.506 490.163 292.954 488.648C293.424 487.112 293.946 485.747 294.522 484.552L297.594 485.96C297.04 487.219 296.613 488.328 296.314 489.288C296.016 490.248 295.866 491.229 295.866 492.232C295.866 494.003 296.421 495.315 297.53 496.168C298.64 497.043 300.24 497.48 302.33 497.48C303.482 497.48 304.57 497.352 305.594 497.096C306.64 496.84 307.525 496.52 308.25 496.136C308.997 495.752 309.509 495.368 309.786 494.984C309.402 494.621 308.592 494.099 307.354 493.416C306.117 492.755 304.837 492.179 303.514 491.688L304.506 487.208C306.362 487.571 307.973 487.837 309.338 488.008C310.704 488.157 312.048 488.232 313.37 488.232H313.882L314.138 490.632L313.882 493H313.37C313.05 493 312.57 492.979 311.93 492.936C312.72 493.725 313.114 494.493 313.114 495.24C313.114 496.307 312.634 497.384 311.674 498.472C310.714 499.56 309.402 500.456 307.738 501.16C306.096 501.885 304.293 502.248 302.33 502.248Z" fill="#878787"/>
<path d="M278.58 492.808C278.794 491.4 278.9 489.224 278.9 486.28C278.9 483.336 278.804 480.253 278.612 477.032C278.442 473.789 278.239 471.517 278.004 470.216L282.004 469.288C282.196 470.525 282.367 472.691 282.516 475.784C282.666 478.877 282.74 481.917 282.74 484.904C282.74 488.595 282.612 491.368 282.356 493.224L278.58 492.808Z" fill="#878787"/>
<path d="M269.79 493C268.809 492.979 267.955 492.733 267.23 492.264C266.526 491.795 265.982 491.133 265.598 490.28C264.403 492.072 262.985 492.979 261.342 493H261.182C260.265 493 259.465 492.755 258.782 492.264C258.099 491.773 257.619 491.123 257.342 490.312C256.659 491.187 255.87 491.859 254.974 492.328C254.099 492.776 253.161 493 252.158 493H252.062L251.806 490.632L252.062 488.232H252.222C252.883 488.232 253.534 488.093 254.174 487.816C254.814 487.517 255.294 487.155 255.614 486.728C256.062 486.216 256.403 485.64 256.638 485C256.873 484.36 257.086 483.677 257.278 482.952L260.606 483.304C260.585 483.411 260.467 483.837 260.254 484.584C260.041 485.309 259.934 485.971 259.934 486.568C259.934 487.677 260.382 488.232 261.278 488.232H261.342C262.451 488.232 263.305 487.645 263.902 486.472C264.393 485.491 264.745 484.243 264.958 482.728L268.286 482.888C268.201 483.229 268.115 483.72 268.03 484.36C267.966 484.979 267.934 485.491 267.934 485.896C267.934 487.453 268.574 488.232 269.854 488.232H269.886C270.526 488.232 271.017 488.051 271.358 487.688C271.721 487.325 271.902 486.856 271.902 486.28C271.902 485.704 271.678 484.787 271.23 483.528C270.803 482.269 270.441 481.309 270.142 480.648L273.438 478.856C273.843 479.731 274.27 480.936 274.718 482.472C275.166 483.987 275.39 485.32 275.39 486.472C275.39 487.645 275.155 488.733 274.686 489.736C274.238 490.717 273.598 491.507 272.766 492.104C271.934 492.701 270.995 493 269.95 493H269.79Z" fill="#878787"/>
<path d="M235.448 493.384C231.672 493.384 228.707 492.797 226.552 491.624C224.397 490.451 223.224 488.819 223.032 486.728C223.011 486.557 223 486.301 223 485.96C223 485.043 223.128 484.051 223.384 482.984C223.64 481.917 223.949 480.968 224.312 480.136L227.384 481.608C226.765 483.549 226.488 484.947 226.552 485.8C226.701 486.611 227.555 487.283 229.112 487.816C230.669 488.328 232.803 488.595 235.512 488.616C238.264 488.595 240.397 488.413 241.912 488.072C243.427 487.709 244.589 487.133 245.4 486.344C246.211 485.555 246.893 484.413 247.448 482.92L250.776 483.304C250.371 484.563 250.168 485.523 250.168 486.184C250.168 486.909 250.339 487.432 250.68 487.752C251.043 488.072 251.576 488.232 252.28 488.232L252.536 490.632L252.28 493C251.085 493 250.029 492.659 249.112 491.976C248.216 491.272 247.672 490.355 247.48 489.224C246.157 490.781 244.536 491.869 242.616 492.488C240.717 493.085 238.328 493.384 235.448 493.384ZM233.752 476.872L236.44 479.56L233.752 482.28L231.032 479.56L233.752 476.872ZM239.384 476.872L242.072 479.56L239.384 482.28L236.664 479.56L239.384 476.872Z" fill="#878787"/>
<defs>
<clipPath id="clip0_455_45444">
<rect width="669" height="465" fill="white"/>
</clipPath>
</defs>
</svg>
