<svg width="25" height="14" viewBox="0 0 25 14" fill="none" xmlns="http://www.w3.org/2000/svg">
<mask id="mask0_294_10326" style="mask-type:luminance" maskUnits="userSpaceOnUse" x="0" y="0" width="25" height="14">
<path d="M9.2603 0L7.4514 14H2.05389L0 0H3.74808C4.18372 3.85652 4.49426 7.11894 4.68051 9.7885C4.86435 7.09069 5.05939 4.69628 5.26562 2.60322L5.51221 0.00040984H9.2603V0ZM14.6782 0V14H11.1243V0H14.6782ZM17.344 0H20.923C21.8914 0 22.6348 0.0777934 23.1559 0.23379C23.6763 0.388968 24.0672 0.613752 24.329 0.90773C24.5903 1.20171 24.7682 1.55833 24.8609 1.97596C24.9536 2.39441 25 3.04132 25 3.91753V5.13602C25 6.02942 24.9101 6.68166 24.7298 7.09028C24.5496 7.49972 24.2198 7.81417 23.7386 8.03281C23.2567 8.25227 22.628 8.3616 21.8522 8.3616H20.8978V13.9996H17.344V0ZM20.8978 2.39523V5.95777C20.9993 5.96391 21.0869 5.96678 21.1592 5.96678C21.4853 5.96678 21.7119 5.88448 21.8386 5.72029C21.9653 5.55529 22.0285 5.21423 22.0285 4.69506V3.54535C22.0285 3.06671 21.9557 2.75513 21.8091 2.611C21.6632 2.4677 21.3594 2.39482 20.8978 2.39482V2.39523Z" fill="white"/>
</mask>
<g mask="url(#mask0_294_10326)">
<path d="M26.9533 6.81544C26.9533 15.0804 20.4123 21.7821 12.3438 21.7821C4.27533 21.7821 -2.26562 15.0804 -2.26562 6.81544C-2.26562 -1.44952 4.27493 -8.15125 12.3438 -8.15125C20.4127 -8.15125 26.9533 -1.45075 26.9533 6.81544Z" fill="url(#paint0_linear_294_10326)"/>
<path d="M26.9533 6.81544C26.9533 15.0804 20.4123 21.7821 12.3438 21.7821C4.27533 21.7821 -2.26562 15.0804 -2.26562 6.81544C-2.26562 -1.44952 4.27493 -8.15125 12.3438 -8.15125C20.4127 -8.15125 26.9533 -1.45075 26.9533 6.81544Z" fill="url(#paint1_linear_294_10326)"/>
<g style="mix-blend-mode:overlay" opacity="0.2">
<path d="M-5.84473 3.90303L27.0531 -2.8728C27.0531 -2.8728 -2.59543 21.319 -2.76929 20.6066C-2.94354 19.8933 -5.84473 3.90303 -5.84473 3.90303Z" fill="white"/>
</g>
<g style="mix-blend-mode:overlay" opacity="0.2">
<path d="M7.32604 -8.7572C7.44234 -7.50882 6.57227 23.5775 6.57227 23.5775L20.3816 21.8534L7.32604 -8.7572Z" fill="white"/>
</g>
<g style="mix-blend-mode:overlay" opacity="0.2">
<path d="M1.23406 -4.83394C1.75643 -4.06174 29.142 8.42129 29.142 8.42129L28.3303 12.9984L-2.4209 -1.44623L1.23446 -4.83435L1.23406 -4.83394Z" fill="white"/>
</g>
<g style="mix-blend-mode:overlay" opacity="0.2">
<path d="M16.8983 -8.92549C16.724 -7.91459 11.0967 23.4596 11.0967 23.4596L21.4249 20.4273L22.0624 -6.02338L16.8983 -8.9259V-8.92549Z" fill="#231F20"/>
</g>
<g style="mix-blend-mode:overlay">
<path d="M-2.94422 5.56848L29.2574 4.79504L27.7487 8.12379L-3.23438 9.37218L-2.94422 5.56848Z" fill="#231F20"/>
</g>
<g style="mix-blend-mode:overlay">
<path d="M0.363281 18.7045L5.75919 -8.51961L10.1691 -9.58948L0.363281 18.7045Z" fill="#231F20"/>
</g>
<g style="mix-blend-mode:overlay" opacity="0.2">
<path d="M17.4903 -10.2615L18.7645 24.0902C18.7645 24.0902 0.189508 -9.75786 0.904913 -9.81969C1.61952 -9.88233 17.4903 -10.2615 17.4903 -10.2615Z" fill="white"/>
</g>
<g style="mix-blend-mode:overlay" opacity="0.2">
<path d="M27.5859 5.08063C26.3641 4.99834 -3.45232 -0.847656 -3.45232 -0.847656L-3.99707 13.3923L27.5863 5.08063H27.5859Z" fill="white"/>
</g>
<g style="mix-blend-mode:overlay" opacity="0.2">
<path d="M24.7771 -1.70707C23.9498 -1.30295 7.54704 24.3985 7.54704 24.3985L3.2666 22.8454L22.0965 -5.94519L24.7775 -1.70707H24.7771Z" fill="white"/>
</g>
<g style="mix-blend-mode:overlay" opacity="0.2">
<path d="M26.2169 14.7893C25.2713 14.4515 -4.06152 3.74829 -4.06152 3.74829L-2.79058 14.6767L22.5955 19.5478L26.2165 14.7897L26.2169 14.7893Z" fill="#231F20"/>
</g>
<g style="mix-blend-mode:overlay">
<path d="M15.6088 -8.7677L11.0238 25.0951L8.06543 22.9832L11.991 -9.67993L15.6088 -8.7677Z" fill="#231F20"/>
</g>
<g style="mix-blend-mode:overlay">
<path d="M0.280273 -0.807007L25.6512 8.99909L25.9781 13.629L0.280273 -0.807007Z" fill="#231F20"/>
</g>
</g>
<defs>
<linearGradient id="paint0_linear_294_10326" x1="9.01579" y1="-7.44537" x2="16.0471" y2="21.2635" gradientUnits="userSpaceOnUse">
<stop stop-color="#793700"/>
<stop offset="0.04" stop-color="#803D00"/>
<stop offset="0.1" stop-color="#965100"/>
<stop offset="0.18" stop-color="#BA7000"/>
<stop offset="0.27" stop-color="#EB9B00"/>
<stop offset="0.28" stop-color="#F3A200"/>
<stop offset="0.5" stop-color="#FFF78E"/>
<stop offset="0.76" stop-color="#F3A200"/>
<stop offset="1" stop-color="#793700"/>
</linearGradient>
<linearGradient id="paint1_linear_294_10326" x1="9.01579" y1="-7.44537" x2="16.0471" y2="21.2635" gradientUnits="userSpaceOnUse">
<stop stop-color="#793700"/>
<stop offset="0.04" stop-color="#803D00"/>
<stop offset="0.1" stop-color="#965100"/>
<stop offset="0.18" stop-color="#BA7000"/>
<stop offset="0.27" stop-color="#EB9B00"/>
<stop offset="0.28" stop-color="#F3A200"/>
<stop offset="0.5" stop-color="#FFF78E"/>
<stop offset="0.76" stop-color="#F3A200"/>
<stop offset="1" stop-color="#793700"/>
</linearGradient>
</defs>
</svg>
