
<svg width="24" height="18" viewBox="0 0 24 18" fill="none" xmlns="http://www.w3.org/2000/svg">
<path fill-rule="evenodd" clip-rule="evenodd" d="M23.9999 18C22.9394 12.3909 19.2389 11.9911 18.7161 11.9623H18.7141C18.6985 11.9616 18.6861 11.9609 18.6764 11.9602H18.6738H18.6725H18.6712H18.6699H18.6647H18.664H18.6634H18.6627H18.6614H18.6575H18.6061C18.6152 12.0014 18.6204 12.0432 18.6204 12.0857C18.6204 12.5795 17.9719 12.9808 17.1712 12.9808C16.3704 12.9808 15.7219 12.5802 15.7219 12.0857C15.7219 12.0432 15.7272 12.0014 15.7363 11.9602C15.7024 11.9602 15.6692 11.9609 15.6354 11.9623H15.6262C12.6451 12.0391 10.9042 15.2339 10.3456 18H24.0006H23.9999Z" fill="#EFADFF"/>
<path fill-rule="evenodd" clip-rule="evenodd" d="M17.1706 18V12.9801C16.3704 12.9801 15.7213 12.5795 15.7213 12.085C15.7213 12.0425 15.7265 12.0007 15.7357 11.9595C15.7018 11.9595 15.6686 11.9602 15.6347 11.9616H15.6256C12.6445 12.0384 10.9036 15.2332 10.345 17.9993H17.1706V18Z" fill="#EFADFF"/>
<path fill-rule="evenodd" clip-rule="evenodd" d="M17.1907 2.13235H17.1985H17.2044C19.1985 2.17625 20.6321 2.67488 21.0482 4.834C21.166 5.44511 21.2103 6.06651 21.222 6.72495C21.1864 8.60186 20.8346 11.9766 20.1649 13.2919C20.0217 13.5732 19.6866 13.6843 19.4068 13.5382C18.5887 13.111 18.1014 11.9942 18.1836 10.4691C18.3782 10.3957 19.3183 9.13716 19.4043 8.8779C19.4062 8.87241 19.4082 8.86692 19.4095 8.86075V8.85869C19.4121 8.85321 19.4134 8.84772 19.4147 8.84223V8.84086C19.4166 8.83537 19.4179 8.8292 19.4193 8.82303V8.82097C19.4212 8.8148 19.4225 8.80862 19.4238 8.80245V8.80108C19.4251 8.79491 19.4264 8.78873 19.4271 8.78256V8.77982C19.4284 8.77364 19.4297 8.76747 19.4303 8.7613V8.75856C19.4316 8.7517 19.4323 8.74552 19.4336 8.73867V8.73729C19.4342 8.73043 19.4349 8.72358 19.4362 8.7174V8.71397C19.4375 8.7078 19.4375 8.70094 19.4381 8.69408V8.69203C19.4388 8.68517 19.4394 8.67762 19.4401 8.67076V8.66939C19.4401 8.66253 19.4407 8.65567 19.4414 8.64882V8.64333C19.4414 8.63647 19.442 8.6303 19.442 8.62344V8.62138C19.442 8.61384 19.442 8.60698 19.442 8.59943V8.596C19.442 8.58915 19.442 8.58229 19.442 8.57543V8.57131C19.442 8.56377 19.442 8.55622 19.442 8.54868V8.54456C19.442 8.53702 19.442 8.53016 19.442 8.52262V8.51919C19.442 8.51233 19.442 8.50478 19.4414 8.49792V8.49244C19.4414 8.48558 19.4407 8.47872 19.4401 8.47186V8.46843V8.46569L19.4388 8.44443V8.43825L19.4368 8.41768V8.4115L19.4342 8.38956V8.38681V8.38476L19.4316 8.36075V8.35938V8.35663L19.429 8.33606L19.4277 8.32714L19.4258 8.30931L19.4245 8.29902L19.4219 8.27982V8.27639C19.4206 8.26747 19.4199 8.25855 19.4186 8.25032V8.24415L19.4147 8.22426L19.4134 8.21672L19.4101 8.19477V8.19203L19.4095 8.18928C19.3528 7.84772 19.7617 7.59806 19.6341 7.41493C19.4635 7.17145 19.2819 6.95951 19.1491 6.67145C18.9544 6.62892 18.873 6.45609 18.5508 6.32234C19.0084 7.1495 18.5703 6.78393 18.138 6.40533C17.7532 6.06857 17.4583 5.67488 17.2031 5.27021L17.1933 5.25513L17.1836 5.27021C16.9284 5.67488 16.6341 6.06788 16.2487 6.40533C15.8164 6.78393 15.3782 7.1495 15.8359 6.32234C15.5143 6.45609 15.4323 6.62892 15.2376 6.67145C15.1041 6.95951 14.9232 7.17145 14.7526 7.41493C14.6243 7.59806 14.7207 7.95197 14.664 8.29422V8.29696L14.6634 8.29971L14.6601 8.32166L14.6588 8.3292L14.6556 8.34909V8.35526C14.6536 8.36349 14.6523 8.37172 14.651 8.37995V8.38133V8.38476L14.6478 8.40396L14.6465 8.41425L14.6445 8.43208L14.6432 8.441L14.6406 8.46157V8.46432V8.46569L14.638 8.48969V8.49175V8.49449L14.636 8.51644V8.52262L14.6341 8.54319V8.54936L14.6321 8.57063V8.57337V8.5768C14.6321 8.58366 14.6315 8.59052 14.6308 8.59737V8.60286C14.6308 8.60972 14.6302 8.61727 14.6295 8.62412V8.62755C14.6295 8.6351 14.6295 8.64196 14.6295 8.6495V8.65156V8.65362C14.6295 8.66116 14.6295 8.66871 14.6295 8.67625V8.68037C14.6295 8.68722 14.6295 8.69408 14.6295 8.70094V8.70437C14.6295 8.71192 14.6295 8.71877 14.6295 8.72632V8.72838C14.6295 8.73524 14.6295 8.74209 14.6302 8.74827V8.75375C14.6302 8.76061 14.6308 8.76747 14.6315 8.77433V8.7757C14.6315 8.78325 14.6328 8.79011 14.6334 8.79696V8.79902C14.6341 8.80588 14.6347 8.81205 14.6354 8.81891V8.82234C14.6367 8.8292 14.6373 8.83606 14.638 8.84223V8.8436C14.6387 8.85046 14.64 8.85663 14.6406 8.86349V8.86624C14.6419 8.87241 14.6432 8.87858 14.6439 8.88476V8.8875C14.6452 8.89367 14.6465 8.89985 14.6478 8.90602V8.90739C14.6491 8.91356 14.6504 8.91973 14.6517 8.92591V8.92797C14.6536 8.93414 14.6549 8.93962 14.6562 8.9458C14.6575 8.95266 14.6595 8.95814 14.6608 8.96363V8.96569C14.6634 8.97118 14.6647 8.97735 14.6666 8.98284C14.7526 9.24209 16.0052 10.3957 16.1998 10.4691C16.2744 11.8526 15.6024 12.9 15.003 13.4015C14.7257 13.6336 14.3364 13.5434 14.1819 13.2165C13.5365 11.8514 13.197 8.56651 13.1614 6.72495C13.1732 6.06651 13.2174 5.44511 13.3353 4.834C13.7506 2.67556 15.1849 2.17625 17.179 2.13304H17.1849H17.192L17.1907 2.13235Z" fill="#080037"/>
<path fill-rule="evenodd" clip-rule="evenodd" d="M15.6257 10.3422L18.7155 10.1982C18.7155 10.2126 18.7155 10.3704 18.7155 10.3848C18.7109 10.978 18.6198 11.6824 18.6198 12.0844C18.6198 12.5782 17.9714 12.9794 17.1706 12.9794C16.3698 12.9794 15.7214 12.5789 15.7214 12.0844C15.7214 11.6728 15.625 10.9438 15.625 10.3416L15.6257 10.3422Z" fill="#DABFA5"/>
<path fill-rule="evenodd" clip-rule="evenodd" d="M17.1048 4.59601C18.6921 4.59601 19.9792 5.98695 19.9792 7.703C19.9792 9.41905 18.6921 10.81 17.1048 10.81C15.5176 10.81 14.2305 9.41905 14.2305 7.703C14.2305 5.98695 15.5176 4.59601 17.1048 4.59601Z" fill="#F4DFCC"/>
<path fill-rule="evenodd" clip-rule="evenodd" d="M17.1705 13.9204C17.3216 13.9204 17.444 14.0494 17.444 14.2085C17.444 14.3676 17.3216 14.4965 17.1705 14.4965C17.0195 14.4965 16.8971 14.3676 16.8971 14.2085C16.8971 14.0494 17.0195 13.9204 17.1705 13.9204Z" fill="#00FF00"/>
<path fill-rule="evenodd" clip-rule="evenodd" d="M17.1705 15.6618C17.3216 15.6618 17.444 15.7908 17.444 15.9499C17.444 16.109 17.3216 16.238 17.1705 16.238C17.0195 16.238 16.8971 16.109 16.8971 15.9499C16.8971 15.7908 17.0195 15.6618 17.1705 15.6618Z" fill="#00FF00"/>
<path fill-rule="evenodd" clip-rule="evenodd" d="M17.1705 17.4033C17.3216 17.4033 17.444 17.5322 17.444 17.6913C17.444 17.8504 17.3216 17.9794 17.1705 17.9794C17.0195 17.9794 16.8971 17.8504 16.8971 17.6913C16.8971 17.5322 17.0195 17.4033 17.1705 17.4033Z" fill="#00FF00"/>
<path fill-rule="evenodd" clip-rule="evenodd" d="M5.5755 9.12483V13.9355H10.1484V9.11043V8.84225H5.5755V9.12483Z" fill="#EDCEB2"/>
<path fill-rule="evenodd" clip-rule="evenodd" d="M0 17.6166C0 17.6166 0 14.8594 1.22135 14.1241C3.05924 13.0178 4.41862 12.2359 5.58073 11.7771C5.58073 11.7908 5.57943 11.8045 5.57943 11.8183C5.57943 12.6015 6.60026 13.2359 7.85938 13.2359C9.11849 13.2359 10.1393 12.6008 10.1393 11.8183C10.1393 11.8066 10.1393 11.7956 10.1387 11.784C11.2969 12.2435 12.6517 13.0233 14.4798 14.1241C15.7012 14.8594 15.7012 17.6166 15.7012 17.6166V17.9966H0V17.6166Z" fill="#B60808"/>
<path d="M9.80626 9.9367C11.553 8.7993 12.0938 6.38551 11.0141 4.54534C9.93448 2.70517 7.64326 2.13547 5.89654 3.27286C4.14982 4.41026 3.60905 6.82406 4.68869 8.66422C5.76832 10.5044 8.05954 11.0741 9.80626 9.9367Z" fill="#F4DFCC"/>
<path fill-rule="evenodd" clip-rule="evenodd" d="M4.39259 8.05418C4.39259 5.28532 4.5947 5.74073 5.01267 3.81961C5.01267 3.81961 7.5 5.5 9.5 3.5C9.5 3.5 9.99545 2.57887 10.8685 4.7181C11.4544 5.83881 11.2747 6.90671 11.2747 8.13991C13.0755 3.84087 11.6478 -1.28259 6.24024 0.290802C3.11459 1.31961 3.34832 5.45816 4.39259 8.05418Z" fill="black"/>
</svg>
